<svg version="1.1" xmlns="http://www.w3.org/2000/svg" style="display:none;">
	<symbol id="1656948422285" viewBox="0 0 1024 1024">
		<path d="M704 128v768H320V128h384m0-64H320c-35.2 0-64 28.8-64 64v768c0 35.2 28.8 64 64 64h384c35.2 0 64-28.8 64-64V128c0-35.2-28.8-64-64-64zM272 192v64h480v-64H272zm0 576h480v-64H272v64zm176 96h128v-64H448v64z" />
	</symbol>
	<symbol id="1656948408081" viewBox="0 0 1024 1024">
		<path d="M823.003 24.512H231.266c-11.307 0-20.466 9.159-20.466 20.466v934.044c0 11.297 9.159 20.466 20.466 20.466h591.737c11.308 0 20.466-9.17 20.466-20.466V44.978c0-11.307-9.158-20.466-20.466-20.466zm-20.466 749.45H322.402c-11.308 0-20.466 9.168-20.466 20.465 0 11.308 9.158 20.467 20.466 20.467h480.135v143.661H251.732V65.445h550.805V773.96z" />
		<path d="M478.673 886.515a47.358 47.358 0 1 0 96.923 0 47.358 47.358 0 1 0-96.923 0z" />
	</symbol>
	<symbol id="1656948382886" viewBox="0 0 1024 1024">
		<path d="M634.592 611.776c-8.256 7.632-20.032 20.704-35.04 38.976l-12.96 15.776-17.648-10.256c-84.352-49.008-152.368-121.216-190.832-204.912l-7.2-15.696 12.592-11.824c17.232-16.192 29.824-28.912 37.6-37.952a122.24 122.24 0 0 0 4.096-4.976 340.08 340.08 0 0 1-12.272-98.624 22.56 22.56 0 0 0-1.312-.72 47.248 47.248 0 0 0-17.92-4.288l-99.44-3.472c-3.936-.16-4.432.32-4.576 4.256-8.864 254 189.28 466.464 443.264 475.344 3.76.128 4.448-.512 4.576-4.272l3.376-96.8c.272-7.584.272-11.36-.08-15.552-.704-8.352-.32-7.792-1.84-7.712-33.952 1.2-66.096-5.376-102.528-18.992a102.768 102.768 0 0 0-1.856 1.696zm-58.688-7.488c10.208-11.84 18.88-21.072 26.08-27.744 17.44-16.16 29.568-23.136 45.328-13.696 33.584 13.12 61.44 19.264 89.76 18.256 33.072-1.44 48.96 20.864 51.584 51.632.56 6.672.544 11.84.208 21.28l-3.376 96.8c-1.056 30.352-24.064 51.616-54.224 50.56-280.48-9.792-499.344-244.48-489.552-524.992 1.072-30.432 23.776-51.616 54.224-50.56l99.424 3.472c33.872 1.184 66.8 17.824 65.648 51.008a292.64 292.64 0 0 0 12.56 95.088c5.776 18.72-5.152 33.76-44.336 71.248 32.336 62.4 83.712 117.264 146.672 157.648z" />
	</symbol>
</svg>
